<?xml version="1.0" standalone="no"?><!DOCTYPE svg PUBLIC "-//W3C//DTD SVG 1.1//EN" "http://www.w3.org/Graphics/SVG/1.1/DTD/svg11.dtd"><svg t="1588559962403" class="icon" viewBox="0 0 1024 1024" version="1.1" xmlns="http://www.w3.org/2000/svg" p-id="892" xmlns:xlink="http://www.w3.org/1999/xlink" width="200" height="200"><defs><style type="text/css"></style></defs><path d="M945.2 812.7l5.2-6.3c7.1-8.6 10.2-19.9 8.4-30.9-6.4-40.4-25.2-123-54.4-238.9-29.5-117.1-51.7-198.2-65.2-245.6-7.2-25.3-23.6-46.7-46.3-60.3l-120.7-72.3c-3.4-8.9-12.3-32.1-19.8-51.4-8.6-22.3-29.6-36.7-53.5-36.7H425.4c-23.9 0-44.9 14.4-53.5 36.7-7.5 19.3-16.4 42.6-19.8 51.4l-120.6 72.3c-22.6 13.6-39.1 35-46.3 60.3-12.3 43.4-37.2 133-65.5 246.6C74.8 718.1 65.3 777.3 65 779.7c-1.3 8.3 1.1 16.9 6.4 23.4l7.8 9.5c2.9 3.5 6.3 6.4 10.1 8.7L78.1 861c-2.1 7.6-1 15.8 3.1 22.5 4.1 6.7 10.9 11.4 18.7 13l72.3 14.2c12.9 2.5 25.9-4.3 31.1-16.4l6.8-15.7H222c-1 14.5-1.7 26.4-2.2 35.2-0.9 14.6 9.8 27.2 24.2 28.8 32.8 3.7 110.6 9.8 263.4 9.8 160.3 0 245.8-7 275.1-10 14.8-1.5 25.5-14.3 24.5-29.1-0.6-8.8-1.5-20.5-2.6-34.8H817l4.8 13.6c4.6 13.1 18.2 20.8 31.8 18.1l69.7-13.7c8-1.6 15-6.5 19.3-13.4s5.5-15.5 3.2-23.3L935 821.4c3.9-2.3 7.3-5.2 10.2-8.7z" fill="#DAE4F2" p-id="893"></path><path d="M546.8 296.4c-12.8-15.4-26.1-27.2-26.7-27.7-2.3-2-5.2-3-8.1-2.8-2.9-0.2-5.9 0.8-8.1 2.8-0.6 0.5-13.8 12.3-26.7 27.7-19 22.8-27 41.1-24.4 55.8 1.3 7.4 5.9 17.3 20.5 23.1 5.1 2 9.6 2.8 13.6 2.8 1.8 0 3.4-0.2 4.9-0.4l-18.4 88.5 22.2 4.6 16.5-79.5 16.5 79.5 22.2-4.6-18.4-88.5c1.4 0.2 2.9 0.4 4.5 0.4 4 0 8.5-0.8 13.6-2.8 14.6-5.7 19.2-15.7 20.5-23.1 2.8-14.7-5.2-33-24.2-55.8z m-56.6 57.9c-0.9 0.6-2.9 2.2-8.7-0.1-5.9-2.3-6.3-4.9-6.5-5.9-1.7-9.3 10.5-27.9 26.1-45.1 0 3.3-0.1 6.8-0.2 10.4-1.4 31.3-8.6 39.1-10.7 40.7z m58.6-6c-0.2 1.1-0.7 3.6-6.5 5.9-5.8 2.3-7.8 0.8-8.7 0.1-2.2-1.6-9.3-9.4-10.7-40.5-0.2-3.6-0.2-7.1-0.2-10.5 2.2 2.4 4.4 5 6.7 7.6 19.9 24 19.9 34.7 19.4 37.4z" fill="#1D88F2" p-id="894"></path><path d="M477.1 506.1h19.8v394.3h-19.8zM527 506.1h19.8v394.3H527z" fill="#FFFFFF" p-id="895"></path><path d="M783.9 643.4c-13.8-136.5-23.2-198.4-24.7-208.1l10.5-136.6-22.6-1.7-10.6 138c-0.1 0.9 0 1.8 0.1 2.7 0.1 0.6 9.7 60.2 24.7 208.1 12.1 119.1 20.2 228.1 23.2 269.5 0.2 2.5-1.7 4.7-4.2 5-29 3-113.5 9.8-272.8 9.8-151.7 0-228.5-6-260.9-9.7-2.5-0.3-4.3-2.4-4.1-4.9 2.5-40.8 9.5-148.8 20.6-269.8 13.8-150.1 22.7-207.5 22.8-208 0.1-0.8 0.2-1.5 0.1-2.3l-6-138.3-22.6 1 6.1 137c-1.3 8.9-10 68.9-22.8 208.4C229.5 764.8 222.5 873.1 220 914c-0.9 14.6 9.8 27.2 24.2 28.8 32.8 3.7 110.6 9.8 263.4 9.8 160.3 0 245.8-7 275.1-10 14.8-1.5 25.5-14.3 24.5-29.1-3-41.4-11.2-150.7-23.3-270.1z" fill="#A9B9D9" p-id="896"></path><path d="M945.2 812.7l5.2-6.3c7.1-8.6 10.2-19.9 8.4-30.9-6.4-40.4-25.2-123-54.4-238.9-29.5-117.1-51.7-198.2-65.2-245.6-7.2-25.3-23.6-46.7-46.3-60.3l-120.7-72.3c-3.4-8.9-12.3-32.1-19.8-51.4-8.6-22.3-29.6-36.7-53.5-36.7H425.4c-23.9 0-44.9 14.4-53.5 36.7-7.5 19.3-16.4 42.6-19.8 51.4l-120.6 72.3c-22.6 13.6-39.1 35-46.3 60.3-12.3 43.4-37.2 133-65.5 246.6C74.8 718.2 65.3 777.3 65 779.8c-1.3 8.3 1.1 16.9 6.4 23.4l7.8 9.5c2.9 3.5 6.3 6.4 10.1 8.7l-11.2 39.7c-2.1 7.6-1 15.8 3.1 22.5 4.1 6.7 10.9 11.4 18.7 13l94.5 18.6 4.4-22.2-94.5-18.6c-2.1-0.4-3.2-1.8-3.7-2.6s-1.2-2.4-0.6-4.5l11-39.3 91.1 17.9 4.4-22.2L106.2 804c-3.7-0.7-7-2.7-9.4-5.6l-7.8-9.5c-1.3-1.6-1.8-3.6-1.6-5.5 0.4-2.4 9.7-60.6 54.4-240.2 28.2-113.3 53-202.7 65.3-245.9 5.6-19.8 18.4-36.5 36.1-47.1l111-66.5c5.4 13.8 14.1 34.7 25.5 58.2 19.8 41 38.2 69.9 39 71.2 2 3.1 5.3 5 8.9 5.2 3.6 0.2 7.2-1.4 9.5-4.2 0.2-0.2 20-24.7 44.6-49.5 12.5-12.6 21.7-20.7 27.2-25.4 1.7-1.4 4.2-1.4 5.9 0 5.5 4.6 14.7 12.8 27.2 25.4 24.8 25 44.4 49.3 44.6 49.5 2.2 2.7 5.4 4.2 8.8 4.2h0.6c3.7-0.2 7-2.2 8.9-5.2 0.8-1.2 19.3-30.6 39-71.1 11.4-23.5 20.2-44.7 25.6-58.5L781 250.3c17.7 10.6 30.5 27.3 36.1 47 13.4 47.3 35.6 128.2 65 245C919 687.6 932 751.2 936.4 779c0.7 4.6-0.5 9.3-3.5 13l-5.2 6.3c-2.4 2.9-5.7 4.9-9.4 5.6L818 823.6l4.4 22.2 90.9-17.9 10.7 38.2c0.7 2.4-0.2 4.4-0.7 5.3s-1.9 2.6-4.4 3l-93.5 18.4 4.4 22.2 93.5-18.4c8-1.6 15-6.5 19.3-13.4s5.5-15.5 3.2-23.3L935 821.4c3.8-2.3 7.3-5.2 10.2-8.7zM623.7 231.9c-11.3 23.4-22.4 43.2-29.6 55.5-8.4-9.7-21.1-24.1-35.8-38.9-10.5-10.6-20.2-19.6-28.8-26.8-10.1-8.5-24.9-8.5-35 0-8.6 7.2-18.3 16.2-28.8 26.8-14.7 14.8-27.5 29.2-35.9 39-7.1-12.2-18.2-31.9-29.6-55.5-13.1-27.1-22.7-51-27.5-63.6 2.6-6.8 12.4-32.3 20.5-53.2 5.2-13.5 17.9-22.2 32.3-22.2H599c14.4 0 27.1 8.7 32.3 22.2 7.8 20.2 17.2 44.6 20.2 52.4-4.8 12.4-14.5 36.9-27.8 64.3z" fill="#A9B9D9" p-id="897"></path><path d="M551.2 151.2c-15.6 12.6-28.4 21.6-36.3 26.8-2.2 1.5-5.1 1.5-7.4-0.1-7.7-5.3-20.2-14.3-35.5-27.1-26.8-22.3-45-41.6-45.3-41.9l-16.4 15.3c0.8 0.8 19.3 20.5 47.3 43.8 16 13.4 29.1 22.8 37.2 28.4 5 3.4 10.7 5.1 16.4 5.1 5.6 0 11.2-1.6 16.1-4.9 8.3-5.5 21.7-14.9 38-28.1 28.3-22.9 48.3-43.3 49.2-44.2l-16-15.7c-0.2 0.4-20 20.6-47.3 42.6z" fill="#A9B9D9" p-id="898"></path></svg>